<mxfile>
    <diagram id="6BDg1KD_mayfi2PuMGdl" name="Page-1">
        <mxGraphModel dx="3024" dy="2376" grid="1" gridSize="10" guides="1" tooltips="1" connect="1" arrows="1" fold="1" page="1" pageScale="1" pageWidth="1920" pageHeight="1200" math="0" shadow="0">
            <root>
                <mxCell id="0"/>
                <mxCell id="1" parent="0"/>
                <mxCell id="199" value="" style="whiteSpace=wrap;html=1;fontSize=15;" parent="1" vertex="1">
                    <mxGeometry x="447.5" y="130" width="1050" height="60" as="geometry"/>
                </mxCell>
                <mxCell id="Rv9vlVJMcPTRxCtkCa90-260" value="" style="whiteSpace=wrap;html=1;fontSize=15;" parent="1" vertex="1">
                    <mxGeometry x="445" y="220" width="1050" height="590" as="geometry"/>
                </mxCell>
                <mxCell id="Rv9vlVJMcPTRxCtkCa90-183" value="" style="whiteSpace=wrap;html=1;fontSize=15;" parent="1" vertex="1">
                    <mxGeometry x="215" y="1200" width="1490" height="490" as="geometry"/>
                </mxCell>
                <mxCell id="Rv9vlVJMcPTRxCtkCa90-259" value="" style="whiteSpace=wrap;html=1;fontSize=15;" parent="1" vertex="1">
                    <mxGeometry x="615" y="890" width="690" height="230" as="geometry"/>
                </mxCell>
                <mxCell id="Rv9vlVJMcPTRxCtkCa90-250" value="Express" style="text;html=1;strokeColor=none;fillColor=none;align=center;verticalAlign=middle;whiteSpace=wrap;rounded=0;fontSize=20;fontStyle=1" parent="1" vertex="1">
                    <mxGeometry x="862.5" y="910" width="195" height="20" as="geometry"/>
                </mxCell>
                <mxCell id="Rv9vlVJMcPTRxCtkCa90-251" value="ReactJS" style="text;html=1;strokeColor=none;fillColor=none;align=center;verticalAlign=middle;whiteSpace=wrap;rounded=0;fontSize=20;fontStyle=1" parent="1" vertex="1">
                    <mxGeometry x="875" y="250" width="195" height="20" as="geometry"/>
                </mxCell>
                <mxCell id="28" value="Schedule" style="shape=table;startSize=35;container=1;collapsible=1;childLayout=tableLayout;fixedRows=1;rowLines=0;fontStyle=1;align=center;resizeLast=1;fontSize=15;" parent="1" vertex="1">
                    <mxGeometry x="255" y="1290" width="1410" height="140" as="geometry"/>
                </mxCell>
                <mxCell id="29" value="" style="shape=partialRectangle;collapsible=0;dropTarget=0;pointerEvents=0;fillColor=none;top=0;left=0;bottom=1;right=0;points=[[0,0.5],[1,0.5]];portConstraint=eastwest;" parent="28" vertex="1">
                    <mxGeometry y="35" width="1410" height="30" as="geometry"/>
                </mxCell>
                <mxCell id="30" value="PK (int)" style="shape=partialRectangle;connectable=0;fillColor=none;top=0;left=0;bottom=0;right=0;fontStyle=1;overflow=hidden;" parent="29" vertex="1">
                    <mxGeometry width="60" height="30" as="geometry"/>
                </mxCell>
                <mxCell id="31" value="Customer (FK, int)" style="shape=partialRectangle;connectable=0;fillColor=none;top=0;left=0;bottom=0;right=0;align=left;spacingLeft=6;fontStyle=5;overflow=hidden;" parent="29" vertex="1">
                    <mxGeometry x="60" width="120" height="30" as="geometry"/>
                </mxCell>
                <mxCell id="51" value="Vehicle (string)" style="shape=partialRectangle;connectable=0;fillColor=none;top=0;left=0;bottom=0;right=0;align=left;spacingLeft=6;fontStyle=5;overflow=hidden;" parent="29" vertex="1">
                    <mxGeometry x="180" width="150" height="30" as="geometry"/>
                </mxCell>
                <mxCell id="55" value="Payload (string)" style="shape=partialRectangle;connectable=0;fillColor=none;top=0;left=0;bottom=0;right=0;align=left;spacingLeft=6;fontStyle=5;overflow=hidden;" parent="29" vertex="1">
                    <mxGeometry x="330" width="150" height="30" as="geometry"/>
                </mxCell>
                <mxCell id="97" value="Launch Date (string)" style="shape=partialRectangle;connectable=0;fillColor=none;top=0;left=0;bottom=0;right=0;align=left;spacingLeft=6;fontStyle=5;overflow=hidden;" parent="29" vertex="1">
                    <mxGeometry x="480" width="170" height="30" as="geometry"/>
                </mxCell>
                <mxCell id="168" value="User (FK, int)" style="shape=partialRectangle;connectable=0;fillColor=none;top=0;left=0;bottom=0;right=0;align=left;spacingLeft=6;fontStyle=5;overflow=hidden;" parent="29" vertex="1">
                    <mxGeometry x="650" width="109.99999999999977" height="30" as="geometry"/>
                </mxCell>
                <mxCell id="101" value="Commander's Approval (boolean)" style="shape=partialRectangle;connectable=0;fillColor=none;top=0;left=0;bottom=0;right=0;align=left;spacingLeft=6;fontStyle=5;overflow=hidden;" parent="29" vertex="1">
                    <mxGeometry x="759.9999999999998" width="210.00000000000023" height="30" as="geometry"/>
                </mxCell>
                <mxCell id="204" value="Request Date (string)" style="shape=partialRectangle;connectable=0;fillColor=none;top=0;left=0;bottom=0;right=0;align=left;spacingLeft=6;fontStyle=5;overflow=hidden;" parent="29" vertex="1">
                    <mxGeometry x="970" width="140" height="30" as="geometry"/>
                </mxCell>
                <mxCell id="216" value="Approval Date (string)" style="shape=partialRectangle;connectable=0;fillColor=none;top=0;left=0;bottom=0;right=0;align=left;spacingLeft=6;fontStyle=5;overflow=hidden;" parent="29" vertex="1">
                    <mxGeometry x="1110" width="140" height="30" as="geometry"/>
                </mxCell>
                <mxCell id="219" value="Scrub Reason (string)" style="shape=partialRectangle;connectable=0;fillColor=none;top=0;left=0;bottom=0;right=0;align=left;spacingLeft=6;fontStyle=5;overflow=hidden;" parent="29" vertex="1">
                    <mxGeometry x="1250" width="160" height="30" as="geometry"/>
                </mxCell>
                <mxCell id="44" style="shape=partialRectangle;collapsible=0;dropTarget=0;pointerEvents=0;fillColor=none;top=0;left=0;bottom=1;right=0;points=[[0,0.5],[1,0.5]];portConstraint=eastwest;" parent="28" vertex="1">
                    <mxGeometry y="65" width="1410" height="40" as="geometry"/>
                </mxCell>
                <mxCell id="45" value="1" style="shape=partialRectangle;connectable=0;fillColor=none;top=0;left=0;bottom=0;right=0;fontStyle=1;overflow=hidden;" parent="44" vertex="1">
                    <mxGeometry width="60" height="40" as="geometry"/>
                </mxCell>
                <mxCell id="46" value="1" style="shape=partialRectangle;connectable=0;fillColor=none;top=0;left=0;bottom=0;right=0;align=left;spacingLeft=6;fontStyle=5;overflow=hidden;" parent="44" vertex="1">
                    <mxGeometry x="60" width="120" height="40" as="geometry"/>
                </mxCell>
                <mxCell id="52" value="Falcon 9" style="shape=partialRectangle;connectable=0;fillColor=none;top=0;left=0;bottom=0;right=0;align=left;spacingLeft=6;fontStyle=5;overflow=hidden;" parent="44" vertex="1">
                    <mxGeometry x="180" width="150" height="40" as="geometry"/>
                </mxCell>
                <mxCell id="56" value="Starlink 9000" style="shape=partialRectangle;connectable=0;fillColor=none;top=0;left=0;bottom=0;right=0;align=left;spacingLeft=6;fontStyle=5;overflow=hidden;" parent="44" vertex="1">
                    <mxGeometry x="330" width="150" height="40" as="geometry"/>
                </mxCell>
                <mxCell id="98" value="Sat Jul 24 2021 00:00:00" style="shape=partialRectangle;connectable=0;fillColor=none;top=0;left=0;bottom=0;right=0;align=left;spacingLeft=6;fontStyle=5;overflow=hidden;" parent="44" vertex="1">
                    <mxGeometry x="480" width="170" height="40" as="geometry"/>
                </mxCell>
                <mxCell id="169" value="1" style="shape=partialRectangle;connectable=0;fillColor=none;top=0;left=0;bottom=0;right=0;align=left;spacingLeft=6;fontStyle=5;overflow=hidden;" parent="44" vertex="1">
                    <mxGeometry x="650" width="109.99999999999977" height="40" as="geometry"/>
                </mxCell>
                <mxCell id="102" value="False" style="shape=partialRectangle;connectable=0;fillColor=none;top=0;left=0;bottom=0;right=0;align=left;spacingLeft=6;fontStyle=5;overflow=hidden;" parent="44" vertex="1">
                    <mxGeometry x="759.9999999999998" width="210.00000000000023" height="40" as="geometry"/>
                </mxCell>
                <mxCell id="205" value="(new Date(). toGMTstring())" style="shape=partialRectangle;connectable=0;fillColor=none;top=0;left=0;bottom=0;right=0;align=left;spacingLeft=6;fontStyle=5;overflow=hidden;whiteSpace=wrap;" parent="44" vertex="1">
                    <mxGeometry x="970" width="140" height="40" as="geometry"/>
                </mxCell>
                <mxCell id="217" value="(default empty)" style="shape=partialRectangle;connectable=0;fillColor=none;top=0;left=0;bottom=0;right=0;align=left;spacingLeft=6;fontStyle=5;overflow=hidden;whiteSpace=wrap;" parent="44" vertex="1">
                    <mxGeometry x="1110" width="140" height="40" as="geometry"/>
                </mxCell>
                <mxCell id="220" value="(default empty)" style="shape=partialRectangle;connectable=0;fillColor=none;top=0;left=0;bottom=0;right=0;align=left;spacingLeft=6;fontStyle=5;overflow=hidden;" parent="44" vertex="1">
                    <mxGeometry x="1250" width="160" height="40" as="geometry"/>
                </mxCell>
                <mxCell id="41" style="shape=partialRectangle;collapsible=0;dropTarget=0;pointerEvents=0;fillColor=none;top=0;left=0;bottom=1;right=0;points=[[0,0.5],[1,0.5]];portConstraint=eastwest;" parent="28" vertex="1">
                    <mxGeometry y="105" width="1410" height="35" as="geometry"/>
                </mxCell>
                <mxCell id="42" value="2" style="shape=partialRectangle;connectable=0;fillColor=none;top=0;left=0;bottom=0;right=0;fontStyle=1;overflow=hidden;" parent="41" vertex="1">
                    <mxGeometry width="60" height="35" as="geometry"/>
                </mxCell>
                <mxCell id="43" value="2" style="shape=partialRectangle;connectable=0;fillColor=none;top=0;left=0;bottom=0;right=0;align=left;spacingLeft=6;fontStyle=5;overflow=hidden;" parent="41" vertex="1">
                    <mxGeometry x="60" width="120" height="35" as="geometry"/>
                </mxCell>
                <mxCell id="53" value="Atlas V" style="shape=partialRectangle;connectable=0;fillColor=none;top=0;left=0;bottom=0;right=0;align=left;spacingLeft=6;fontStyle=5;overflow=hidden;" parent="41" vertex="1">
                    <mxGeometry x="180" width="150" height="35" as="geometry"/>
                </mxCell>
                <mxCell id="57" value="NROL-101" style="shape=partialRectangle;connectable=0;fillColor=none;top=0;left=0;bottom=0;right=0;align=left;spacingLeft=6;fontStyle=5;overflow=hidden;" parent="41" vertex="1">
                    <mxGeometry x="330" width="150" height="35" as="geometry"/>
                </mxCell>
                <mxCell id="99" value="Fri Nov 13 2016 06:32:00" style="shape=partialRectangle;connectable=0;fillColor=none;top=0;left=0;bottom=0;right=0;align=left;spacingLeft=6;fontStyle=5;overflow=hidden;" parent="41" vertex="1">
                    <mxGeometry x="480" width="170" height="35" as="geometry"/>
                </mxCell>
                <mxCell id="170" value="2" style="shape=partialRectangle;connectable=0;fillColor=none;top=0;left=0;bottom=0;right=0;align=left;spacingLeft=6;fontStyle=5;overflow=hidden;" parent="41" vertex="1">
                    <mxGeometry x="650" width="109.99999999999977" height="35" as="geometry"/>
                </mxCell>
                <mxCell id="103" value="True" style="shape=partialRectangle;connectable=0;fillColor=none;top=0;left=0;bottom=0;right=0;align=left;spacingLeft=6;fontStyle=5;overflow=hidden;" parent="41" vertex="1">
                    <mxGeometry x="759.9999999999998" width="210.00000000000023" height="35" as="geometry"/>
                </mxCell>
                <mxCell id="206" value="(new Date(). toGMTstring())" style="shape=partialRectangle;connectable=0;fillColor=none;top=0;left=0;bottom=0;right=0;align=left;spacingLeft=6;fontStyle=5;overflow=hidden;whiteSpace=wrap;" parent="41" vertex="1">
                    <mxGeometry x="970" width="140" height="35" as="geometry"/>
                </mxCell>
                <mxCell id="218" value="(default empty)" style="shape=partialRectangle;connectable=0;fillColor=none;top=0;left=0;bottom=0;right=0;align=left;spacingLeft=6;fontStyle=5;overflow=hidden;whiteSpace=wrap;" parent="41" vertex="1">
                    <mxGeometry x="1110" width="140" height="35" as="geometry"/>
                </mxCell>
                <mxCell id="221" value="(default empty)" style="shape=partialRectangle;connectable=0;fillColor=none;top=0;left=0;bottom=0;right=0;align=left;spacingLeft=6;fontStyle=5;overflow=hidden;" parent="41" vertex="1">
                    <mxGeometry x="1250" width="160" height="35" as="geometry"/>
                </mxCell>
                <mxCell id="84" value="Customers" style="shape=table;startSize=30;container=1;collapsible=1;childLayout=tableLayout;fixedRows=1;rowLines=0;fontStyle=1;align=center;resizeLast=1;fontSize=15;" parent="1" vertex="1">
                    <mxGeometry x="285" y="1497" width="180" height="150" as="geometry"/>
                </mxCell>
                <mxCell id="85" value="" style="shape=partialRectangle;collapsible=0;dropTarget=0;pointerEvents=0;fillColor=none;top=0;left=0;bottom=1;right=0;points=[[0,0.5],[1,0.5]];portConstraint=eastwest;" parent="84" vertex="1">
                    <mxGeometry y="30" width="180" height="30" as="geometry"/>
                </mxCell>
                <mxCell id="86" value="PK" style="shape=partialRectangle;connectable=0;fillColor=none;top=0;left=0;bottom=0;right=0;fontStyle=1;overflow=hidden;" parent="85" vertex="1">
                    <mxGeometry width="30" height="30" as="geometry"/>
                </mxCell>
                <mxCell id="87" value="Users (string)" style="shape=partialRectangle;connectable=0;fillColor=none;top=0;left=0;bottom=0;right=0;align=left;spacingLeft=6;fontStyle=5;overflow=hidden;" parent="85" vertex="1">
                    <mxGeometry x="30" width="150" height="30" as="geometry"/>
                </mxCell>
                <mxCell id="108" style="shape=partialRectangle;collapsible=0;dropTarget=0;pointerEvents=0;fillColor=none;top=0;left=0;bottom=1;right=0;points=[[0,0.5],[1,0.5]];portConstraint=eastwest;" parent="84" vertex="1">
                    <mxGeometry y="60" width="180" height="30" as="geometry"/>
                </mxCell>
                <mxCell id="109" value="1" style="shape=partialRectangle;connectable=0;fillColor=none;top=0;left=0;bottom=0;right=0;fontStyle=1;overflow=hidden;" parent="108" vertex="1">
                    <mxGeometry width="30" height="30" as="geometry"/>
                </mxCell>
                <mxCell id="110" value="SpaceX" style="shape=partialRectangle;connectable=0;fillColor=none;top=0;left=0;bottom=0;right=0;align=left;spacingLeft=6;fontStyle=5;overflow=hidden;" parent="108" vertex="1">
                    <mxGeometry x="30" width="150" height="30" as="geometry"/>
                </mxCell>
                <mxCell id="105" style="shape=partialRectangle;collapsible=0;dropTarget=0;pointerEvents=0;fillColor=none;top=0;left=0;bottom=1;right=0;points=[[0,0.5],[1,0.5]];portConstraint=eastwest;" parent="84" vertex="1">
                    <mxGeometry y="90" width="180" height="30" as="geometry"/>
                </mxCell>
                <mxCell id="106" value="2" style="shape=partialRectangle;connectable=0;fillColor=none;top=0;left=0;bottom=0;right=0;fontStyle=1;overflow=hidden;" parent="105" vertex="1">
                    <mxGeometry width="30" height="30" as="geometry"/>
                </mxCell>
                <mxCell id="107" value="ULA" style="shape=partialRectangle;connectable=0;fillColor=none;top=0;left=0;bottom=0;right=0;align=left;spacingLeft=6;fontStyle=5;overflow=hidden;" parent="105" vertex="1">
                    <mxGeometry x="30" width="150" height="30" as="geometry"/>
                </mxCell>
                <mxCell id="164" style="shape=partialRectangle;collapsible=0;dropTarget=0;pointerEvents=0;fillColor=none;top=0;left=0;bottom=1;right=0;points=[[0,0.5],[1,0.5]];portConstraint=eastwest;" parent="84" vertex="1">
                    <mxGeometry y="120" width="180" height="30" as="geometry"/>
                </mxCell>
                <mxCell id="165" value="3" style="shape=partialRectangle;connectable=0;fillColor=none;top=0;left=0;bottom=0;right=0;fontStyle=1;overflow=hidden;" parent="164" vertex="1">
                    <mxGeometry width="30" height="30" as="geometry"/>
                </mxCell>
                <mxCell id="166" value="NASA" style="shape=partialRectangle;connectable=0;fillColor=none;top=0;left=0;bottom=0;right=0;align=left;spacingLeft=6;fontStyle=5;overflow=hidden;" parent="164" vertex="1">
                    <mxGeometry x="30" width="150" height="30" as="geometry"/>
                </mxCell>
                <mxCell id="141" value="Users" style="shape=table;startSize=30;container=1;collapsible=1;childLayout=tableLayout;fixedRows=1;rowLines=0;fontStyle=1;align=center;resizeLast=1;fontSize=15;" parent="1" vertex="1">
                    <mxGeometry x="630" y="1497" width="660" height="150" as="geometry"/>
                </mxCell>
                <mxCell id="142" value="" style="shape=partialRectangle;collapsible=0;dropTarget=0;pointerEvents=0;fillColor=none;top=0;left=0;bottom=1;right=0;points=[[0,0.5],[1,0.5]];portConstraint=eastwest;" parent="141" vertex="1">
                    <mxGeometry y="30" width="660" height="30" as="geometry"/>
                </mxCell>
                <mxCell id="143" value="PK" style="shape=partialRectangle;connectable=0;fillColor=none;top=0;left=0;bottom=0;right=0;fontStyle=1;overflow=hidden;" parent="142" vertex="1">
                    <mxGeometry width="40" height="30" as="geometry"/>
                </mxCell>
                <mxCell id="144" value="Name (string)" style="shape=partialRectangle;connectable=0;fillColor=none;top=0;left=0;bottom=0;right=0;align=left;spacingLeft=6;fontStyle=5;overflow=hidden;" parent="142" vertex="1">
                    <mxGeometry x="40" width="110" height="30" as="geometry"/>
                </mxCell>
                <mxCell id="151" value="Email (string)" style="shape=partialRectangle;connectable=0;fillColor=none;top=0;left=0;bottom=0;right=0;align=left;spacingLeft=6;fontStyle=5;overflow=hidden;" parent="142" vertex="1">
                    <mxGeometry x="150" width="160" height="30" as="geometry"/>
                </mxCell>
                <mxCell id="154" value="Password (string)" style="shape=partialRectangle;connectable=0;fillColor=none;top=0;left=0;bottom=0;right=0;align=left;spacingLeft=6;fontStyle=5;overflow=hidden;" parent="142" vertex="1">
                    <mxGeometry x="310" width="160" height="30" as="geometry"/>
                </mxCell>
                <mxCell id="222" value="Approval Authority (boolean)" style="shape=partialRectangle;connectable=0;fillColor=none;top=0;left=0;bottom=0;right=0;align=left;spacingLeft=6;fontStyle=5;overflow=hidden;" parent="142" vertex="1">
                    <mxGeometry x="470" width="190" height="30" as="geometry"/>
                </mxCell>
                <mxCell id="145" style="shape=partialRectangle;collapsible=0;dropTarget=0;pointerEvents=0;fillColor=none;top=0;left=0;bottom=1;right=0;points=[[0,0.5],[1,0.5]];portConstraint=eastwest;" parent="141" vertex="1">
                    <mxGeometry y="60" width="660" height="30" as="geometry"/>
                </mxCell>
                <mxCell id="146" value="1" style="shape=partialRectangle;connectable=0;fillColor=none;top=0;left=0;bottom=0;right=0;fontStyle=1;overflow=hidden;" parent="145" vertex="1">
                    <mxGeometry width="40" height="30" as="geometry"/>
                </mxCell>
                <mxCell id="147" value="Julian" style="shape=partialRectangle;connectable=0;fillColor=none;top=0;left=0;bottom=0;right=0;align=left;spacingLeft=6;fontStyle=5;overflow=hidden;" parent="145" vertex="1">
                    <mxGeometry x="40" width="110" height="30" as="geometry"/>
                </mxCell>
                <mxCell id="152" value="julian@awesomespace.com" style="shape=partialRectangle;connectable=0;fillColor=none;top=0;left=0;bottom=0;right=0;align=left;spacingLeft=6;fontStyle=5;overflow=hidden;" parent="145" vertex="1">
                    <mxGeometry x="150" width="160" height="30" as="geometry"/>
                </mxCell>
                <mxCell id="155" value="12345" style="shape=partialRectangle;connectable=0;fillColor=none;top=0;left=0;bottom=0;right=0;align=left;spacingLeft=6;fontStyle=5;overflow=hidden;" parent="145" vertex="1">
                    <mxGeometry x="310" width="160" height="30" as="geometry"/>
                </mxCell>
                <mxCell id="223" value="True" style="shape=partialRectangle;connectable=0;fillColor=none;top=0;left=0;bottom=0;right=0;align=left;spacingLeft=6;fontStyle=5;overflow=hidden;" parent="145" vertex="1">
                    <mxGeometry x="470" width="190" height="30" as="geometry"/>
                </mxCell>
                <mxCell id="148" style="shape=partialRectangle;collapsible=0;dropTarget=0;pointerEvents=0;fillColor=none;top=0;left=0;bottom=1;right=0;points=[[0,0.5],[1,0.5]];portConstraint=eastwest;" parent="141" vertex="1">
                    <mxGeometry y="90" width="660" height="30" as="geometry"/>
                </mxCell>
                <mxCell id="149" value="2" style="shape=partialRectangle;connectable=0;fillColor=none;top=0;left=0;bottom=0;right=0;fontStyle=1;overflow=hidden;" parent="148" vertex="1">
                    <mxGeometry width="40" height="30" as="geometry"/>
                </mxCell>
                <mxCell id="150" value="Bryan" style="shape=partialRectangle;connectable=0;fillColor=none;top=0;left=0;bottom=0;right=0;align=left;spacingLeft=6;fontStyle=5;overflow=hidden;" parent="148" vertex="1">
                    <mxGeometry x="40" width="110" height="30" as="geometry"/>
                </mxCell>
                <mxCell id="153" value="bryanleyva.mlk@gmail.com" style="shape=partialRectangle;connectable=0;fillColor=none;top=0;left=0;bottom=0;right=0;align=left;spacingLeft=6;fontStyle=5;overflow=hidden;" parent="148" vertex="1">
                    <mxGeometry x="150" width="160" height="30" as="geometry"/>
                </mxCell>
                <mxCell id="156" value="password" style="shape=partialRectangle;connectable=0;fillColor=none;top=0;left=0;bottom=0;right=0;align=left;spacingLeft=6;fontStyle=5;overflow=hidden;" parent="148" vertex="1">
                    <mxGeometry x="310" width="160" height="30" as="geometry"/>
                </mxCell>
                <mxCell id="224" value="True" style="shape=partialRectangle;connectable=0;fillColor=none;top=0;left=0;bottom=0;right=0;align=left;spacingLeft=6;fontStyle=5;overflow=hidden;" parent="148" vertex="1">
                    <mxGeometry x="470" width="190" height="30" as="geometry"/>
                </mxCell>
                <mxCell id="157" style="shape=partialRectangle;collapsible=0;dropTarget=0;pointerEvents=0;fillColor=none;top=0;left=0;bottom=1;right=0;points=[[0,0.5],[1,0.5]];portConstraint=eastwest;" parent="141" vertex="1">
                    <mxGeometry y="120" width="660" height="30" as="geometry"/>
                </mxCell>
                <mxCell id="158" value="3" style="shape=partialRectangle;connectable=0;fillColor=none;top=0;left=0;bottom=0;right=0;fontStyle=1;overflow=hidden;" parent="157" vertex="1">
                    <mxGeometry width="40" height="30" as="geometry"/>
                </mxCell>
                <mxCell id="159" value="Justin" style="shape=partialRectangle;connectable=0;fillColor=none;top=0;left=0;bottom=0;right=0;align=left;spacingLeft=6;fontStyle=5;overflow=hidden;" parent="157" vertex="1">
                    <mxGeometry x="40" width="110" height="30" as="geometry"/>
                </mxCell>
                <mxCell id="160" value="justinthelaw@yahoo.com" style="shape=partialRectangle;connectable=0;fillColor=none;top=0;left=0;bottom=0;right=0;align=left;spacingLeft=6;fontStyle=5;overflow=hidden;" parent="157" vertex="1">
                    <mxGeometry x="150" width="160" height="30" as="geometry"/>
                </mxCell>
                <mxCell id="161" value="galvanize" style="shape=partialRectangle;connectable=0;fillColor=none;top=0;left=0;bottom=0;right=0;align=left;spacingLeft=6;fontStyle=5;overflow=hidden;" parent="157" vertex="1">
                    <mxGeometry x="310" width="160" height="30" as="geometry"/>
                </mxCell>
                <mxCell id="225" value="False" style="shape=partialRectangle;connectable=0;fillColor=none;top=0;left=0;bottom=0;right=0;align=left;spacingLeft=6;fontStyle=5;overflow=hidden;" parent="157" vertex="1">
                    <mxGeometry x="470" width="190" height="30" as="geometry"/>
                </mxCell>
                <mxCell id="167" value="" style="endArrow=ERzeroToMany;html=1;startArrow=ERmandOne;startFill=0;endFill=1;jumpSize=7;strokeWidth=2;entryX=0.5;entryY=0;entryDx=0;entryDy=0;labelBackgroundColor=none;" parent="1" target="84" edge="1">
                    <mxGeometry x="215" y="1210" width="50" height="50" as="geometry">
                        <mxPoint x="375" y="1430" as="sourcePoint"/>
                        <mxPoint x="435" y="1440" as="targetPoint"/>
                    </mxGeometry>
                </mxCell>
                <mxCell id="183" value="" style="endArrow=ERzeroToMany;html=1;startArrow=ERmandOne;startFill=0;endFill=1;jumpSize=7;strokeWidth=2;labelBackgroundColor=none;entryX=0.5;entryY=0;entryDx=0;entryDy=0;" parent="1" target="141" edge="1">
                    <mxGeometry x="215" y="1210" width="50" height="50" as="geometry">
                        <mxPoint x="960" y="1430" as="sourcePoint"/>
                        <mxPoint x="955" y="1497" as="targetPoint"/>
                    </mxGeometry>
                </mxCell>
                <mxCell id="Rv9vlVJMcPTRxCtkCa90-184" value="Docker Container: PostgreSQL" style="text;html=1;strokeColor=none;fillColor=none;align=center;verticalAlign=middle;whiteSpace=wrap;rounded=0;fontSize=20;fontStyle=1" parent="1" vertex="1">
                    <mxGeometry x="865" y="1236" width="195" height="20" as="geometry"/>
                </mxCell>
                <mxCell id="Rv9vlVJMcPTRxCtkCa90-265" value="" style="shape=flexArrow;endArrow=classic;html=1;fontSize=20;entryX=0.5;entryY=1;entryDx=0;entryDy=0;fillColor=#ffffff;startArrow=block;exitX=0.5;exitY=0;exitDx=0;exitDy=0;" parent="1" source="Rv9vlVJMcPTRxCtkCa90-183" target="Rv9vlVJMcPTRxCtkCa90-259" edge="1">
                    <mxGeometry width="50" height="50" relative="1" as="geometry">
                        <mxPoint x="740" y="1400" as="sourcePoint"/>
                        <mxPoint x="1115" y="1300" as="targetPoint"/>
                    </mxGeometry>
                </mxCell>
                <mxCell id="Rv9vlVJMcPTRxCtkCa90-296" value="GET" style="shape=table;startSize=30;container=1;collapsible=1;childLayout=tableLayout;fixedRows=1;rowLines=0;fontStyle=1;align=center;resizeLast=1;fontSize=15;" parent="1" vertex="1">
                    <mxGeometry x="635" y="960" width="150" height="120" as="geometry"/>
                </mxCell>
                <mxCell id="Rv9vlVJMcPTRxCtkCa90-297" value="" style="shape=partialRectangle;collapsible=0;dropTarget=0;pointerEvents=0;fillColor=none;top=0;left=0;bottom=1;right=0;points=[[0,0.5],[1,0.5]];portConstraint=eastwest;" parent="Rv9vlVJMcPTRxCtkCa90-296" vertex="1">
                    <mxGeometry y="30" width="150" height="30" as="geometry"/>
                </mxCell>
                <mxCell id="Rv9vlVJMcPTRxCtkCa90-299" value="Dashboard: all launches" style="shape=partialRectangle;connectable=0;fillColor=none;top=0;left=0;bottom=0;right=0;align=left;spacingLeft=6;fontStyle=0;overflow=hidden;whiteSpace=wrap;" parent="Rv9vlVJMcPTRxCtkCa90-297" vertex="1">
                    <mxGeometry width="150" height="30" as="geometry"/>
                </mxCell>
                <mxCell id="Rv9vlVJMcPTRxCtkCa90-300" style="shape=partialRectangle;collapsible=0;dropTarget=0;pointerEvents=0;fillColor=none;top=0;left=0;bottom=1;right=0;points=[[0,0.5],[1,0.5]];portConstraint=eastwest;" parent="Rv9vlVJMcPTRxCtkCa90-296" vertex="1">
                    <mxGeometry y="60" width="150" height="30" as="geometry"/>
                </mxCell>
                <mxCell id="Rv9vlVJMcPTRxCtkCa90-302" value="Login: email, password" style="shape=partialRectangle;connectable=0;fillColor=none;top=0;left=0;bottom=0;right=0;align=left;spacingLeft=6;fontStyle=0;overflow=hidden;" parent="Rv9vlVJMcPTRxCtkCa90-300" vertex="1">
                    <mxGeometry width="150" height="30" as="geometry"/>
                </mxCell>
                <mxCell id="259" style="shape=partialRectangle;collapsible=0;dropTarget=0;pointerEvents=0;fillColor=none;top=0;left=0;bottom=1;right=0;points=[[0,0.5],[1,0.5]];portConstraint=eastwest;" vertex="1" parent="Rv9vlVJMcPTRxCtkCa90-296">
                    <mxGeometry y="90" width="150" height="30" as="geometry"/>
                </mxCell>
                <mxCell id="260" value="Home: sign out" style="shape=partialRectangle;connectable=0;fillColor=none;top=0;left=0;bottom=0;right=0;align=left;spacingLeft=6;fontStyle=0;overflow=hidden;" vertex="1" parent="259">
                    <mxGeometry width="150" height="30" as="geometry"/>
                </mxCell>
                <mxCell id="Rv9vlVJMcPTRxCtkCa90-325" value="POST" style="shape=table;startSize=30;container=1;collapsible=1;childLayout=tableLayout;fixedRows=1;rowLines=0;fontStyle=1;align=center;resizeLast=1;fontSize=15;" parent="1" vertex="1">
                    <mxGeometry x="802" y="960" width="150" height="130" as="geometry"/>
                </mxCell>
                <mxCell id="Rv9vlVJMcPTRxCtkCa90-326" value="" style="shape=partialRectangle;collapsible=0;dropTarget=0;pointerEvents=0;fillColor=none;top=0;left=0;bottom=1;right=0;points=[[0,0.5],[1,0.5]];portConstraint=eastwest;" parent="Rv9vlVJMcPTRxCtkCa90-325" vertex="1">
                    <mxGeometry y="30" width="150" height="30" as="geometry"/>
                </mxCell>
                <mxCell id="Rv9vlVJMcPTRxCtkCa90-327" value="New Customer: &#10;name" style="shape=partialRectangle;connectable=0;fillColor=none;top=0;left=0;bottom=0;right=0;align=left;spacingLeft=6;fontStyle=0;overflow=hidden;" parent="Rv9vlVJMcPTRxCtkCa90-326" vertex="1">
                    <mxGeometry width="150" height="30" as="geometry"/>
                </mxCell>
                <mxCell id="Rv9vlVJMcPTRxCtkCa90-328" style="shape=partialRectangle;collapsible=0;dropTarget=0;pointerEvents=0;fillColor=none;top=0;left=0;bottom=1;right=0;points=[[0,0.5],[1,0.5]];portConstraint=eastwest;" parent="Rv9vlVJMcPTRxCtkCa90-325" vertex="1">
                    <mxGeometry y="60" width="150" height="30" as="geometry"/>
                </mxCell>
                <mxCell id="Rv9vlVJMcPTRxCtkCa90-329" value="Dashboard: new launch" style="shape=partialRectangle;connectable=0;fillColor=none;top=0;left=0;bottom=0;right=0;align=left;spacingLeft=6;fontStyle=0;overflow=hidden;" parent="Rv9vlVJMcPTRxCtkCa90-328" vertex="1">
                    <mxGeometry width="150" height="30" as="geometry"/>
                </mxCell>
                <mxCell id="Rv9vlVJMcPTRxCtkCa90-330" style="shape=partialRectangle;collapsible=0;dropTarget=0;pointerEvents=0;fillColor=none;top=0;left=0;bottom=1;right=0;points=[[0,0.5],[1,0.5]];portConstraint=eastwest;" parent="Rv9vlVJMcPTRxCtkCa90-325" vertex="1">
                    <mxGeometry y="90" width="150" height="40" as="geometry"/>
                </mxCell>
                <mxCell id="Rv9vlVJMcPTRxCtkCa90-331" value="Register: name, email, password, permission" style="shape=partialRectangle;connectable=0;fillColor=none;top=0;left=0;bottom=0;right=0;align=left;spacingLeft=6;fontStyle=0;overflow=hidden;whiteSpace=wrap;" parent="Rv9vlVJMcPTRxCtkCa90-330" vertex="1">
                    <mxGeometry width="150" height="40" as="geometry"/>
                </mxCell>
                <mxCell id="Rv9vlVJMcPTRxCtkCa90-334" value="PATCH" style="shape=table;startSize=30;container=1;collapsible=1;childLayout=tableLayout;fixedRows=1;rowLines=0;fontStyle=1;align=center;resizeLast=1;fontSize=15;" parent="1" vertex="1">
                    <mxGeometry x="968" y="960" width="150" height="110" as="geometry"/>
                </mxCell>
                <mxCell id="Rv9vlVJMcPTRxCtkCa90-335" value="" style="shape=partialRectangle;collapsible=0;dropTarget=0;pointerEvents=0;fillColor=none;top=0;left=0;bottom=1;right=0;points=[[0,0.5],[1,0.5]];portConstraint=eastwest;" parent="Rv9vlVJMcPTRxCtkCa90-334" vertex="1">
                    <mxGeometry y="30" width="150" height="40" as="geometry"/>
                </mxCell>
                <mxCell id="Rv9vlVJMcPTRxCtkCa90-336" value="Dashboard: launch approve" style="shape=partialRectangle;connectable=0;fillColor=none;top=0;left=0;bottom=0;right=0;align=left;spacingLeft=6;fontStyle=0;overflow=hidden;whiteSpace=wrap;" parent="Rv9vlVJMcPTRxCtkCa90-335" vertex="1">
                    <mxGeometry width="150" height="40" as="geometry"/>
                </mxCell>
                <mxCell id="234" style="shape=partialRectangle;collapsible=0;dropTarget=0;pointerEvents=0;fillColor=none;top=0;left=0;bottom=1;right=0;points=[[0,0.5],[1,0.5]];portConstraint=eastwest;" parent="Rv9vlVJMcPTRxCtkCa90-334" vertex="1">
                    <mxGeometry y="70" width="150" height="40" as="geometry"/>
                </mxCell>
                <mxCell id="235" value="Dashboard: launch edit" style="shape=partialRectangle;connectable=0;fillColor=none;top=0;left=0;bottom=0;right=0;align=left;spacingLeft=6;fontStyle=0;overflow=hidden;whiteSpace=wrap;" parent="234" vertex="1">
                    <mxGeometry width="150" height="40" as="geometry"/>
                </mxCell>
                <mxCell id="Rv9vlVJMcPTRxCtkCa90-343" value="DELETE" style="shape=table;startSize=30;container=1;collapsible=1;childLayout=tableLayout;fixedRows=1;rowLines=0;fontStyle=1;align=center;resizeLast=1;fontSize=15;" parent="1" vertex="1">
                    <mxGeometry x="1135" y="960" width="150" height="60" as="geometry"/>
                </mxCell>
                <mxCell id="Rv9vlVJMcPTRxCtkCa90-344" value="" style="shape=partialRectangle;collapsible=0;dropTarget=0;pointerEvents=0;fillColor=none;top=0;left=0;bottom=1;right=0;points=[[0,0.5],[1,0.5]];portConstraint=eastwest;" parent="Rv9vlVJMcPTRxCtkCa90-343" vertex="1">
                    <mxGeometry y="30" width="150" height="30" as="geometry"/>
                </mxCell>
                <mxCell id="Rv9vlVJMcPTRxCtkCa90-345" value="Dashboard: launch delete" style="shape=partialRectangle;connectable=0;fillColor=none;top=0;left=0;bottom=0;right=0;align=left;spacingLeft=6;fontStyle=0;overflow=hidden;" parent="Rv9vlVJMcPTRxCtkCa90-344" vertex="1">
                    <mxGeometry width="150" height="30" as="geometry"/>
                </mxCell>
                <mxCell id="Rv9vlVJMcPTRxCtkCa90-475" value="" style="shape=flexArrow;endArrow=classic;html=1;fontSize=20;fillColor=#ffffff;startArrow=block;exitX=0.5;exitY=0;exitDx=0;exitDy=0;" parent="1" source="Rv9vlVJMcPTRxCtkCa90-259" target="Rv9vlVJMcPTRxCtkCa90-260" edge="1">
                    <mxGeometry width="50" height="50" relative="1" as="geometry">
                        <mxPoint x="952" y="1230" as="sourcePoint"/>
                        <mxPoint x="952" y="1160" as="targetPoint"/>
                    </mxGeometry>
                </mxCell>
                <mxCell id="Rv9vlVJMcPTRxCtkCa90-507" value="" style="group" parent="1" connectable="0" vertex="1">
                    <mxGeometry x="1185" y="310" width="230" height="130" as="geometry"/>
                </mxCell>
                <mxCell id="Rv9vlVJMcPTRxCtkCa90-476" value="" style="whiteSpace=wrap;html=1;fontSize=15;" parent="Rv9vlVJMcPTRxCtkCa90-507" vertex="1">
                    <mxGeometry width="230" height="130" as="geometry"/>
                </mxCell>
                <mxCell id="Rv9vlVJMcPTRxCtkCa90-477" value="Launch Data" style="shape=table;startSize=30;container=1;collapsible=1;childLayout=tableLayout;fixedRows=1;rowLines=0;fontStyle=1;align=center;resizeLast=1;fontSize=14;" parent="Rv9vlVJMcPTRxCtkCa90-507" collapsed="1" vertex="1">
                    <mxGeometry x="10" y="40" width="110" height="30" as="geometry">
                        <mxRectangle x="970" y="150" width="160" height="100" as="alternateBounds"/>
                    </mxGeometry>
                </mxCell>
                <mxCell id="Rv9vlVJMcPTRxCtkCa90-478" value="" style="shape=partialRectangle;collapsible=0;dropTarget=0;pointerEvents=0;fillColor=none;top=0;left=0;bottom=1;right=0;points=[[0,0.5],[1,0.5]];portConstraint=eastwest;" parent="Rv9vlVJMcPTRxCtkCa90-477" vertex="1">
                    <mxGeometry y="30" width="130" height="70" as="geometry"/>
                </mxCell>
                <mxCell id="Rv9vlVJMcPTRxCtkCa90-479" value="Input" style="shape=partialRectangle;connectable=0;fillColor=none;top=0;left=0;bottom=0;right=0;align=left;spacingLeft=6;fontStyle=0;overflow=hidden;whiteSpace=wrap;verticalAlign=top;" parent="Rv9vlVJMcPTRxCtkCa90-478" vertex="1">
                    <mxGeometry width="130" height="70" as="geometry"/>
                </mxCell>
                <mxCell id="Rv9vlVJMcPTRxCtkCa90-480" value="Dashboard" style="text;html=1;strokeColor=none;fillColor=none;align=center;verticalAlign=middle;whiteSpace=wrap;rounded=0;fontSize=14;fontStyle=1" parent="Rv9vlVJMcPTRxCtkCa90-507" vertex="1">
                    <mxGeometry x="17.5" y="10" width="195" height="20" as="geometry"/>
                </mxCell>
                <mxCell id="Rv9vlVJMcPTRxCtkCa90-481" value="Approve" style="shape=table;startSize=30;container=1;collapsible=1;childLayout=tableLayout;fixedRows=1;rowLines=0;fontStyle=1;align=center;resizeLast=1;fontSize=15;" parent="Rv9vlVJMcPTRxCtkCa90-507" collapsed="1" vertex="1">
                    <mxGeometry x="10" y="80" width="90" height="30" as="geometry">
                        <mxRectangle x="970" y="150" width="160" height="100" as="alternateBounds"/>
                    </mxGeometry>
                </mxCell>
                <mxCell id="Rv9vlVJMcPTRxCtkCa90-482" value="" style="shape=partialRectangle;collapsible=0;dropTarget=0;pointerEvents=0;fillColor=none;top=0;left=0;bottom=1;right=0;points=[[0,0.5],[1,0.5]];portConstraint=eastwest;" parent="Rv9vlVJMcPTRxCtkCa90-481" vertex="1">
                    <mxGeometry y="30" width="160" height="70" as="geometry"/>
                </mxCell>
                <mxCell id="Rv9vlVJMcPTRxCtkCa90-483" value="Input" style="shape=partialRectangle;connectable=0;fillColor=none;top=0;left=0;bottom=0;right=0;align=left;spacingLeft=6;fontStyle=0;overflow=hidden;whiteSpace=wrap;verticalAlign=top;" parent="Rv9vlVJMcPTRxCtkCa90-482" vertex="1">
                    <mxGeometry width="160" height="70" as="geometry"/>
                </mxCell>
                <mxCell id="Rv9vlVJMcPTRxCtkCa90-484" value="Register" style="shape=table;startSize=30;container=1;collapsible=1;childLayout=tableLayout;fixedRows=1;rowLines=0;fontStyle=1;align=center;resizeLast=1;fontSize=15;" parent="Rv9vlVJMcPTRxCtkCa90-481" collapsed="1" vertex="1">
                    <mxGeometry x="-72.5" width="100" height="30" as="geometry">
                        <mxRectangle x="970" y="150" width="160" height="100" as="alternateBounds"/>
                    </mxGeometry>
                </mxCell>
                <mxCell id="Rv9vlVJMcPTRxCtkCa90-485" value="" style="shape=partialRectangle;collapsible=0;dropTarget=0;pointerEvents=0;fillColor=none;top=0;left=0;bottom=1;right=0;points=[[0,0.5],[1,0.5]];portConstraint=eastwest;" parent="Rv9vlVJMcPTRxCtkCa90-484" vertex="1">
                    <mxGeometry y="30" width="160" height="70" as="geometry"/>
                </mxCell>
                <mxCell id="Rv9vlVJMcPTRxCtkCa90-486" value="Input" style="shape=partialRectangle;connectable=0;fillColor=none;top=0;left=0;bottom=0;right=0;align=left;spacingLeft=6;fontStyle=0;overflow=hidden;whiteSpace=wrap;verticalAlign=top;" parent="Rv9vlVJMcPTRxCtkCa90-485" vertex="1">
                    <mxGeometry width="160" height="70" as="geometry"/>
                </mxCell>
                <mxCell id="228" value="Edit" style="shape=table;startSize=30;container=1;collapsible=1;childLayout=tableLayout;fixedRows=1;rowLines=0;fontStyle=1;align=center;resizeLast=1;fontSize=15;" parent="Rv9vlVJMcPTRxCtkCa90-507" collapsed="1" vertex="1">
                    <mxGeometry x="128" y="40" width="90" height="30" as="geometry">
                        <mxRectangle x="970" y="150" width="160" height="100" as="alternateBounds"/>
                    </mxGeometry>
                </mxCell>
                <mxCell id="229" value="" style="shape=partialRectangle;collapsible=0;dropTarget=0;pointerEvents=0;fillColor=none;top=0;left=0;bottom=1;right=0;points=[[0,0.5],[1,0.5]];portConstraint=eastwest;" parent="228" vertex="1">
                    <mxGeometry y="30" width="160" height="70" as="geometry"/>
                </mxCell>
                <mxCell id="230" value="Input" style="shape=partialRectangle;connectable=0;fillColor=none;top=0;left=0;bottom=0;right=0;align=left;spacingLeft=6;fontStyle=0;overflow=hidden;whiteSpace=wrap;verticalAlign=top;" parent="229" vertex="1">
                    <mxGeometry width="160" height="70" as="geometry"/>
                </mxCell>
                <mxCell id="231" value="Register" style="shape=table;startSize=30;container=1;collapsible=1;childLayout=tableLayout;fixedRows=1;rowLines=0;fontStyle=1;align=center;resizeLast=1;fontSize=15;" parent="228" collapsed="1" vertex="1">
                    <mxGeometry x="-72.5" width="100" height="30" as="geometry">
                        <mxRectangle x="970" y="150" width="160" height="100" as="alternateBounds"/>
                    </mxGeometry>
                </mxCell>
                <mxCell id="232" value="" style="shape=partialRectangle;collapsible=0;dropTarget=0;pointerEvents=0;fillColor=none;top=0;left=0;bottom=1;right=0;points=[[0,0.5],[1,0.5]];portConstraint=eastwest;" parent="231" vertex="1">
                    <mxGeometry y="30" width="160" height="70" as="geometry"/>
                </mxCell>
                <mxCell id="233" value="Input" style="shape=partialRectangle;connectable=0;fillColor=none;top=0;left=0;bottom=0;right=0;align=left;spacingLeft=6;fontStyle=0;overflow=hidden;whiteSpace=wrap;verticalAlign=top;" parent="232" vertex="1">
                    <mxGeometry width="160" height="70" as="geometry"/>
                </mxCell>
                <mxCell id="Rv9vlVJMcPTRxCtkCa90-508" value="" style="group" parent="1" connectable="0" vertex="1">
                    <mxGeometry x="852.5" y="310" width="230" height="130" as="geometry"/>
                </mxCell>
                <mxCell id="185" value="" style="whiteSpace=wrap;html=1;fontSize=15;" parent="Rv9vlVJMcPTRxCtkCa90-508" vertex="1">
                    <mxGeometry width="230" height="130" as="geometry"/>
                </mxCell>
                <mxCell id="186" value="Dashboard" style="shape=table;startSize=30;container=1;collapsible=1;childLayout=tableLayout;fixedRows=1;rowLines=0;fontStyle=1;align=center;resizeLast=1;fontSize=14;" parent="Rv9vlVJMcPTRxCtkCa90-508" collapsed="1" vertex="1">
                    <mxGeometry x="9.583333333333337" y="40" width="95.83333333333334" height="30" as="geometry">
                        <mxRectangle x="970" y="150" width="160" height="100" as="alternateBounds"/>
                    </mxGeometry>
                </mxCell>
                <mxCell id="187" value="" style="shape=partialRectangle;collapsible=0;dropTarget=0;pointerEvents=0;fillColor=none;top=0;left=0;bottom=1;right=0;points=[[0,0.5],[1,0.5]];portConstraint=eastwest;" parent="186" vertex="1">
                    <mxGeometry y="30" width="100" height="70" as="geometry"/>
                </mxCell>
                <mxCell id="188" value="Input" style="shape=partialRectangle;connectable=0;fillColor=none;top=0;left=0;bottom=0;right=0;align=left;spacingLeft=6;fontStyle=0;overflow=hidden;whiteSpace=wrap;verticalAlign=top;" parent="187" vertex="1">
                    <mxGeometry width="100" height="70" as="geometry"/>
                </mxCell>
                <mxCell id="Rv9vlVJMcPTRxCtkCa90-489" value="" style="shape=partialRectangle;collapsible=0;dropTarget=0;pointerEvents=0;fillColor=none;top=0;left=0;bottom=1;right=0;points=[[0,0.5],[1,0.5]];portConstraint=eastwest;" parent="186" vertex="1">
                    <mxGeometry y="100" width="100" height="70" as="geometry"/>
                </mxCell>
                <mxCell id="Rv9vlVJMcPTRxCtkCa90-490" value="Input" style="shape=partialRectangle;connectable=0;fillColor=none;top=0;left=0;bottom=0;right=0;align=left;spacingLeft=6;fontStyle=0;overflow=hidden;whiteSpace=wrap;verticalAlign=top;" parent="Rv9vlVJMcPTRxCtkCa90-489" vertex="1">
                    <mxGeometry width="100" height="70" as="geometry"/>
                </mxCell>
                <mxCell id="192" value="Home" style="text;html=1;strokeColor=none;fillColor=none;align=center;verticalAlign=middle;whiteSpace=wrap;rounded=0;fontSize=14;fontStyle=1" parent="Rv9vlVJMcPTRxCtkCa90-508" vertex="1">
                    <mxGeometry x="19.166666666666675" y="10" width="186.875" height="20" as="geometry"/>
                </mxCell>
                <mxCell id="193" value="New Launch" style="shape=table;startSize=30;container=1;collapsible=1;childLayout=tableLayout;fixedRows=1;rowLines=0;fontStyle=1;align=center;resizeLast=1;fontSize=15;" parent="Rv9vlVJMcPTRxCtkCa90-508" collapsed="1" vertex="1">
                    <mxGeometry x="9.583333333333337" y="80" width="124.58333333333336" height="30" as="geometry">
                        <mxRectangle x="970" y="150" width="160" height="100" as="alternateBounds"/>
                    </mxGeometry>
                </mxCell>
                <mxCell id="194" value="" style="shape=partialRectangle;collapsible=0;dropTarget=0;pointerEvents=0;fillColor=none;top=0;left=0;bottom=1;right=0;points=[[0,0.5],[1,0.5]];portConstraint=eastwest;" parent="193" vertex="1">
                    <mxGeometry y="30" width="160" height="70" as="geometry"/>
                </mxCell>
                <mxCell id="195" value="Input" style="shape=partialRectangle;connectable=0;fillColor=none;top=0;left=0;bottom=0;right=0;align=left;spacingLeft=6;fontStyle=0;overflow=hidden;whiteSpace=wrap;verticalAlign=top;" parent="194" vertex="1">
                    <mxGeometry width="160" height="70" as="geometry"/>
                </mxCell>
                <mxCell id="196" value="Register" style="shape=table;startSize=30;container=1;collapsible=1;childLayout=tableLayout;fixedRows=1;rowLines=0;fontStyle=1;align=center;resizeLast=1;fontSize=15;" parent="193" collapsed="1" vertex="1">
                    <mxGeometry x="-69.4791666666667" width="100" height="30" as="geometry">
                        <mxRectangle x="970" y="150" width="160" height="100" as="alternateBounds"/>
                    </mxGeometry>
                </mxCell>
                <mxCell id="197" value="" style="shape=partialRectangle;collapsible=0;dropTarget=0;pointerEvents=0;fillColor=none;top=0;left=0;bottom=1;right=0;points=[[0,0.5],[1,0.5]];portConstraint=eastwest;" parent="196" vertex="1">
                    <mxGeometry y="30" width="160" height="70" as="geometry"/>
                </mxCell>
                <mxCell id="198" value="Input" style="shape=partialRectangle;connectable=0;fillColor=none;top=0;left=0;bottom=0;right=0;align=left;spacingLeft=6;fontStyle=0;overflow=hidden;whiteSpace=wrap;verticalAlign=top;" parent="197" vertex="1">
                    <mxGeometry width="160" height="70" as="geometry"/>
                </mxCell>
                <mxCell id="Rv9vlVJMcPTRxCtkCa90-491" value="New Customer" style="shape=table;startSize=30;container=1;collapsible=1;childLayout=tableLayout;fixedRows=1;rowLines=0;fontStyle=1;align=center;resizeLast=1;fontSize=14;" parent="Rv9vlVJMcPTRxCtkCa90-508" collapsed="1" vertex="1">
                    <mxGeometry x="112.6041666666667" y="40" width="107.8125" height="30" as="geometry">
                        <mxRectangle x="970" y="150" width="160" height="100" as="alternateBounds"/>
                    </mxGeometry>
                </mxCell>
                <mxCell id="Rv9vlVJMcPTRxCtkCa90-492" value="" style="shape=partialRectangle;collapsible=0;dropTarget=0;pointerEvents=0;fillColor=none;top=0;left=0;bottom=1;right=0;points=[[0,0.5],[1,0.5]];portConstraint=eastwest;" parent="Rv9vlVJMcPTRxCtkCa90-491" vertex="1">
                    <mxGeometry y="30" width="100" height="70" as="geometry"/>
                </mxCell>
                <mxCell id="Rv9vlVJMcPTRxCtkCa90-493" value="Input" style="shape=partialRectangle;connectable=0;fillColor=none;top=0;left=0;bottom=0;right=0;align=left;spacingLeft=6;fontStyle=0;overflow=hidden;whiteSpace=wrap;verticalAlign=top;" parent="Rv9vlVJMcPTRxCtkCa90-492" vertex="1">
                    <mxGeometry width="100" height="70" as="geometry"/>
                </mxCell>
                <mxCell id="Rv9vlVJMcPTRxCtkCa90-494" value="" style="shape=partialRectangle;collapsible=0;dropTarget=0;pointerEvents=0;fillColor=none;top=0;left=0;bottom=1;right=0;points=[[0,0.5],[1,0.5]];portConstraint=eastwest;" parent="Rv9vlVJMcPTRxCtkCa90-491" vertex="1">
                    <mxGeometry y="100" width="100" height="70" as="geometry"/>
                </mxCell>
                <mxCell id="Rv9vlVJMcPTRxCtkCa90-495" value="Input" style="shape=partialRectangle;connectable=0;fillColor=none;top=0;left=0;bottom=0;right=0;align=left;spacingLeft=6;fontStyle=0;overflow=hidden;whiteSpace=wrap;verticalAlign=top;" parent="Rv9vlVJMcPTRxCtkCa90-494" vertex="1">
                    <mxGeometry width="100" height="70" as="geometry"/>
                </mxCell>
                <mxCell id="Rv9vlVJMcPTRxCtkCa90-509" value="" style="group" parent="1" connectable="0" vertex="1">
                    <mxGeometry x="525" y="310" width="230" height="130" as="geometry"/>
                </mxCell>
                <mxCell id="Rv9vlVJMcPTRxCtkCa90-413" value="" style="whiteSpace=wrap;html=1;fontSize=15;" parent="Rv9vlVJMcPTRxCtkCa90-509" vertex="1">
                    <mxGeometry width="230" height="130" as="geometry"/>
                </mxCell>
                <mxCell id="Rv9vlVJMcPTRxCtkCa90-402" value="Email" style="shape=table;startSize=30;container=1;collapsible=1;childLayout=tableLayout;fixedRows=1;rowLines=0;fontStyle=1;align=center;resizeLast=1;fontSize=14;" parent="Rv9vlVJMcPTRxCtkCa90-509" collapsed="1" vertex="1">
                    <mxGeometry x="15" y="40" width="100" height="30" as="geometry">
                        <mxRectangle x="970" y="150" width="160" height="100" as="alternateBounds"/>
                    </mxGeometry>
                </mxCell>
                <mxCell id="Rv9vlVJMcPTRxCtkCa90-403" value="" style="shape=partialRectangle;collapsible=0;dropTarget=0;pointerEvents=0;fillColor=none;top=0;left=0;bottom=1;right=0;points=[[0,0.5],[1,0.5]];portConstraint=eastwest;" parent="Rv9vlVJMcPTRxCtkCa90-402" vertex="1">
                    <mxGeometry y="30" width="160" height="70" as="geometry"/>
                </mxCell>
                <mxCell id="Rv9vlVJMcPTRxCtkCa90-404" value="Input" style="shape=partialRectangle;connectable=0;fillColor=none;top=0;left=0;bottom=0;right=0;align=left;spacingLeft=6;fontStyle=0;overflow=hidden;whiteSpace=wrap;verticalAlign=top;" parent="Rv9vlVJMcPTRxCtkCa90-403" vertex="1">
                    <mxGeometry width="160" height="70" as="geometry"/>
                </mxCell>
                <mxCell id="Rv9vlVJMcPTRxCtkCa90-409" value="Password" style="shape=table;startSize=30;container=1;collapsible=1;childLayout=tableLayout;fixedRows=1;rowLines=0;fontStyle=1;align=center;resizeLast=1;fontSize=15;" parent="Rv9vlVJMcPTRxCtkCa90-509" collapsed="1" vertex="1">
                    <mxGeometry x="122.5" y="40" width="100" height="30" as="geometry">
                        <mxRectangle x="970" y="150" width="160" height="100" as="alternateBounds"/>
                    </mxGeometry>
                </mxCell>
                <mxCell id="Rv9vlVJMcPTRxCtkCa90-410" value="" style="shape=partialRectangle;collapsible=0;dropTarget=0;pointerEvents=0;fillColor=none;top=0;left=0;bottom=1;right=0;points=[[0,0.5],[1,0.5]];portConstraint=eastwest;" parent="Rv9vlVJMcPTRxCtkCa90-409" vertex="1">
                    <mxGeometry y="30" width="160" height="70" as="geometry"/>
                </mxCell>
                <mxCell id="Rv9vlVJMcPTRxCtkCa90-411" value="Input" style="shape=partialRectangle;connectable=0;fillColor=none;top=0;left=0;bottom=0;right=0;align=left;spacingLeft=6;fontStyle=0;overflow=hidden;whiteSpace=wrap;verticalAlign=top;" parent="Rv9vlVJMcPTRxCtkCa90-410" vertex="1">
                    <mxGeometry width="160" height="70" as="geometry"/>
                </mxCell>
                <mxCell id="Rv9vlVJMcPTRxCtkCa90-414" value="Login" style="text;html=1;strokeColor=none;fillColor=none;align=center;verticalAlign=middle;whiteSpace=wrap;rounded=0;fontSize=14;fontStyle=1" parent="Rv9vlVJMcPTRxCtkCa90-509" vertex="1">
                    <mxGeometry x="17.5" y="10" width="195" height="20" as="geometry"/>
                </mxCell>
                <mxCell id="Rv9vlVJMcPTRxCtkCa90-417" value="Submit" style="shape=table;startSize=30;container=1;collapsible=1;childLayout=tableLayout;fixedRows=1;rowLines=0;fontStyle=1;align=center;resizeLast=1;fontSize=15;" parent="Rv9vlVJMcPTRxCtkCa90-509" collapsed="1" vertex="1">
                    <mxGeometry x="15" y="80" width="100" height="30" as="geometry">
                        <mxRectangle x="970" y="150" width="160" height="100" as="alternateBounds"/>
                    </mxGeometry>
                </mxCell>
                <mxCell id="Rv9vlVJMcPTRxCtkCa90-418" value="" style="shape=partialRectangle;collapsible=0;dropTarget=0;pointerEvents=0;fillColor=none;top=0;left=0;bottom=1;right=0;points=[[0,0.5],[1,0.5]];portConstraint=eastwest;" parent="Rv9vlVJMcPTRxCtkCa90-417" vertex="1">
                    <mxGeometry y="30" width="160" height="70" as="geometry"/>
                </mxCell>
                <mxCell id="Rv9vlVJMcPTRxCtkCa90-419" value="Input" style="shape=partialRectangle;connectable=0;fillColor=none;top=0;left=0;bottom=0;right=0;align=left;spacingLeft=6;fontStyle=0;overflow=hidden;whiteSpace=wrap;verticalAlign=top;" parent="Rv9vlVJMcPTRxCtkCa90-418" vertex="1">
                    <mxGeometry width="160" height="70" as="geometry"/>
                </mxCell>
                <mxCell id="Rv9vlVJMcPTRxCtkCa90-441" value="Register" style="shape=table;startSize=30;container=1;collapsible=1;childLayout=tableLayout;fixedRows=1;rowLines=0;fontStyle=1;align=center;resizeLast=1;fontSize=15;" parent="Rv9vlVJMcPTRxCtkCa90-417" collapsed="1" vertex="1">
                    <mxGeometry x="-72.5" width="100" height="30" as="geometry">
                        <mxRectangle x="970" y="150" width="160" height="100" as="alternateBounds"/>
                    </mxGeometry>
                </mxCell>
                <mxCell id="Rv9vlVJMcPTRxCtkCa90-442" value="" style="shape=partialRectangle;collapsible=0;dropTarget=0;pointerEvents=0;fillColor=none;top=0;left=0;bottom=1;right=0;points=[[0,0.5],[1,0.5]];portConstraint=eastwest;" parent="Rv9vlVJMcPTRxCtkCa90-441" vertex="1">
                    <mxGeometry y="30" width="160" height="70" as="geometry"/>
                </mxCell>
                <mxCell id="Rv9vlVJMcPTRxCtkCa90-443" value="Input" style="shape=partialRectangle;connectable=0;fillColor=none;top=0;left=0;bottom=0;right=0;align=left;spacingLeft=6;fontStyle=0;overflow=hidden;whiteSpace=wrap;verticalAlign=top;" parent="Rv9vlVJMcPTRxCtkCa90-442" vertex="1">
                    <mxGeometry width="160" height="70" as="geometry"/>
                </mxCell>
                <mxCell id="Rv9vlVJMcPTRxCtkCa90-420" value="Register" style="shape=table;startSize=30;container=1;collapsible=1;childLayout=tableLayout;fixedRows=1;rowLines=0;fontStyle=1;align=center;resizeLast=1;fontSize=15;" parent="Rv9vlVJMcPTRxCtkCa90-509" collapsed="1" vertex="1">
                    <mxGeometry x="122.5" y="80" width="100" height="30" as="geometry">
                        <mxRectangle x="970" y="150" width="160" height="100" as="alternateBounds"/>
                    </mxGeometry>
                </mxCell>
                <mxCell id="Rv9vlVJMcPTRxCtkCa90-421" value="" style="shape=partialRectangle;collapsible=0;dropTarget=0;pointerEvents=0;fillColor=none;top=0;left=0;bottom=1;right=0;points=[[0,0.5],[1,0.5]];portConstraint=eastwest;" parent="Rv9vlVJMcPTRxCtkCa90-420" vertex="1">
                    <mxGeometry y="30" width="160" height="70" as="geometry"/>
                </mxCell>
                <mxCell id="Rv9vlVJMcPTRxCtkCa90-422" value="Input" style="shape=partialRectangle;connectable=0;fillColor=none;top=0;left=0;bottom=0;right=0;align=left;spacingLeft=6;fontStyle=0;overflow=hidden;whiteSpace=wrap;verticalAlign=top;" parent="Rv9vlVJMcPTRxCtkCa90-421" vertex="1">
                    <mxGeometry width="160" height="70" as="geometry"/>
                </mxCell>
                <mxCell id="Rv9vlVJMcPTRxCtkCa90-510" value="" style="group" parent="1" connectable="0" vertex="1">
                    <mxGeometry x="525" y="470" width="230" height="130" as="geometry"/>
                </mxCell>
                <mxCell id="Rv9vlVJMcPTRxCtkCa90-427" value="" style="whiteSpace=wrap;html=1;fontSize=15;" parent="Rv9vlVJMcPTRxCtkCa90-510" vertex="1">
                    <mxGeometry width="230" height="130" as="geometry"/>
                </mxCell>
                <mxCell id="Rv9vlVJMcPTRxCtkCa90-428" value="Email" style="shape=table;startSize=30;container=1;collapsible=1;childLayout=tableLayout;fixedRows=1;rowLines=0;fontStyle=1;align=center;resizeLast=1;fontSize=14;" parent="Rv9vlVJMcPTRxCtkCa90-510" collapsed="1" vertex="1">
                    <mxGeometry x="10" y="40" width="100" height="30" as="geometry">
                        <mxRectangle x="970" y="150" width="160" height="100" as="alternateBounds"/>
                    </mxGeometry>
                </mxCell>
                <mxCell id="Rv9vlVJMcPTRxCtkCa90-429" value="" style="shape=partialRectangle;collapsible=0;dropTarget=0;pointerEvents=0;fillColor=none;top=0;left=0;bottom=1;right=0;points=[[0,0.5],[1,0.5]];portConstraint=eastwest;" parent="Rv9vlVJMcPTRxCtkCa90-428" vertex="1">
                    <mxGeometry y="30" width="160" height="70" as="geometry"/>
                </mxCell>
                <mxCell id="Rv9vlVJMcPTRxCtkCa90-430" value="Input" style="shape=partialRectangle;connectable=0;fillColor=none;top=0;left=0;bottom=0;right=0;align=left;spacingLeft=6;fontStyle=0;overflow=hidden;whiteSpace=wrap;verticalAlign=top;" parent="Rv9vlVJMcPTRxCtkCa90-429" vertex="1">
                    <mxGeometry width="160" height="70" as="geometry"/>
                </mxCell>
                <mxCell id="Rv9vlVJMcPTRxCtkCa90-431" value="Password" style="shape=table;startSize=30;container=1;collapsible=1;childLayout=tableLayout;fixedRows=1;rowLines=0;fontStyle=1;align=center;resizeLast=1;fontSize=15;" parent="Rv9vlVJMcPTRxCtkCa90-510" collapsed="1" vertex="1">
                    <mxGeometry x="117.5" y="40" width="100" height="30" as="geometry">
                        <mxRectangle x="970" y="150" width="160" height="100" as="alternateBounds"/>
                    </mxGeometry>
                </mxCell>
                <mxCell id="Rv9vlVJMcPTRxCtkCa90-432" value="" style="shape=partialRectangle;collapsible=0;dropTarget=0;pointerEvents=0;fillColor=none;top=0;left=0;bottom=1;right=0;points=[[0,0.5],[1,0.5]];portConstraint=eastwest;" parent="Rv9vlVJMcPTRxCtkCa90-431" vertex="1">
                    <mxGeometry y="30" width="160" height="70" as="geometry"/>
                </mxCell>
                <mxCell id="Rv9vlVJMcPTRxCtkCa90-433" value="Input" style="shape=partialRectangle;connectable=0;fillColor=none;top=0;left=0;bottom=0;right=0;align=left;spacingLeft=6;fontStyle=0;overflow=hidden;whiteSpace=wrap;verticalAlign=top;" parent="Rv9vlVJMcPTRxCtkCa90-432" vertex="1">
                    <mxGeometry width="160" height="70" as="geometry"/>
                </mxCell>
                <mxCell id="Rv9vlVJMcPTRxCtkCa90-434" value="Register" style="text;html=1;strokeColor=none;fillColor=none;align=center;verticalAlign=middle;whiteSpace=wrap;rounded=0;fontSize=14;fontStyle=1" parent="Rv9vlVJMcPTRxCtkCa90-510" vertex="1">
                    <mxGeometry x="12.5" y="10" width="195" height="20" as="geometry"/>
                </mxCell>
                <mxCell id="Rv9vlVJMcPTRxCtkCa90-435" value="Name" style="shape=table;startSize=30;container=1;collapsible=1;childLayout=tableLayout;fixedRows=1;rowLines=0;fontStyle=1;align=center;resizeLast=1;fontSize=15;" parent="Rv9vlVJMcPTRxCtkCa90-510" collapsed="1" vertex="1">
                    <mxGeometry x="10" y="80" width="100" height="30" as="geometry">
                        <mxRectangle x="970" y="150" width="160" height="100" as="alternateBounds"/>
                    </mxGeometry>
                </mxCell>
                <mxCell id="Rv9vlVJMcPTRxCtkCa90-436" value="" style="shape=partialRectangle;collapsible=0;dropTarget=0;pointerEvents=0;fillColor=none;top=0;left=0;bottom=1;right=0;points=[[0,0.5],[1,0.5]];portConstraint=eastwest;" parent="Rv9vlVJMcPTRxCtkCa90-435" vertex="1">
                    <mxGeometry y="30" width="160" height="70" as="geometry"/>
                </mxCell>
                <mxCell id="Rv9vlVJMcPTRxCtkCa90-437" value="Input" style="shape=partialRectangle;connectable=0;fillColor=none;top=0;left=0;bottom=0;right=0;align=left;spacingLeft=6;fontStyle=0;overflow=hidden;whiteSpace=wrap;verticalAlign=top;" parent="Rv9vlVJMcPTRxCtkCa90-436" vertex="1">
                    <mxGeometry width="160" height="70" as="geometry"/>
                </mxCell>
                <mxCell id="Rv9vlVJMcPTRxCtkCa90-438" value="Submit" style="shape=table;startSize=30;container=1;collapsible=1;childLayout=tableLayout;fixedRows=1;rowLines=0;fontStyle=1;align=center;resizeLast=1;fontSize=15;" parent="Rv9vlVJMcPTRxCtkCa90-510" collapsed="1" vertex="1">
                    <mxGeometry x="117.5" y="80" width="100" height="30" as="geometry">
                        <mxRectangle x="1082.5" y="380" width="160" height="100" as="alternateBounds"/>
                    </mxGeometry>
                </mxCell>
                <mxCell id="Rv9vlVJMcPTRxCtkCa90-439" value="" style="shape=partialRectangle;collapsible=0;dropTarget=0;pointerEvents=0;fillColor=none;top=0;left=0;bottom=1;right=0;points=[[0,0.5],[1,0.5]];portConstraint=eastwest;" parent="Rv9vlVJMcPTRxCtkCa90-438" vertex="1">
                    <mxGeometry y="30" width="160" height="70" as="geometry"/>
                </mxCell>
                <mxCell id="Rv9vlVJMcPTRxCtkCa90-440" value="Button" style="shape=partialRectangle;connectable=0;fillColor=none;top=0;left=0;bottom=0;right=0;align=left;spacingLeft=6;fontStyle=0;overflow=hidden;whiteSpace=wrap;verticalAlign=top;" parent="Rv9vlVJMcPTRxCtkCa90-439" vertex="1">
                    <mxGeometry width="160" height="70" as="geometry"/>
                </mxCell>
                <mxCell id="Rv9vlVJMcPTRxCtkCa90-511" value="" style="group" parent="1" connectable="0" vertex="1">
                    <mxGeometry x="852.5" y="470" width="230" height="130" as="geometry"/>
                </mxCell>
                <mxCell id="Rv9vlVJMcPTRxCtkCa90-447" value="" style="whiteSpace=wrap;html=1;fontSize=15;" parent="Rv9vlVJMcPTRxCtkCa90-511" vertex="1">
                    <mxGeometry width="230" height="130" as="geometry"/>
                </mxCell>
                <mxCell id="Rv9vlVJMcPTRxCtkCa90-448" value="Name" style="shape=table;startSize=30;container=1;collapsible=1;childLayout=tableLayout;fixedRows=1;rowLines=0;fontStyle=1;align=center;resizeLast=1;fontSize=14;" parent="Rv9vlVJMcPTRxCtkCa90-511" collapsed="1" vertex="1">
                    <mxGeometry x="10" y="40" width="100" height="30" as="geometry">
                        <mxRectangle x="970" y="150" width="160" height="100" as="alternateBounds"/>
                    </mxGeometry>
                </mxCell>
                <mxCell id="Rv9vlVJMcPTRxCtkCa90-449" value="" style="shape=partialRectangle;collapsible=0;dropTarget=0;pointerEvents=0;fillColor=none;top=0;left=0;bottom=1;right=0;points=[[0,0.5],[1,0.5]];portConstraint=eastwest;" parent="Rv9vlVJMcPTRxCtkCa90-448" vertex="1">
                    <mxGeometry y="30" width="160" height="70" as="geometry"/>
                </mxCell>
                <mxCell id="Rv9vlVJMcPTRxCtkCa90-450" value="Input" style="shape=partialRectangle;connectable=0;fillColor=none;top=0;left=0;bottom=0;right=0;align=left;spacingLeft=6;fontStyle=0;overflow=hidden;whiteSpace=wrap;verticalAlign=top;" parent="Rv9vlVJMcPTRxCtkCa90-449" vertex="1">
                    <mxGeometry width="160" height="70" as="geometry"/>
                </mxCell>
                <mxCell id="Rv9vlVJMcPTRxCtkCa90-454" value="New Customer" style="text;html=1;strokeColor=none;fillColor=none;align=center;verticalAlign=middle;whiteSpace=wrap;rounded=0;fontSize=14;fontStyle=1" parent="Rv9vlVJMcPTRxCtkCa90-511" vertex="1">
                    <mxGeometry x="12.5" y="10" width="195" height="20" as="geometry"/>
                </mxCell>
                <mxCell id="Rv9vlVJMcPTRxCtkCa90-496" value="Submit" style="shape=table;startSize=30;container=1;collapsible=1;childLayout=tableLayout;fixedRows=1;rowLines=0;fontStyle=1;align=center;resizeLast=1;fontSize=15;" parent="Rv9vlVJMcPTRxCtkCa90-511" collapsed="1" vertex="1">
                    <mxGeometry x="10" y="80" width="100" height="30" as="geometry">
                        <mxRectangle x="1082.5" y="380" width="160" height="100" as="alternateBounds"/>
                    </mxGeometry>
                </mxCell>
                <mxCell id="Rv9vlVJMcPTRxCtkCa90-497" value="" style="shape=partialRectangle;collapsible=0;dropTarget=0;pointerEvents=0;fillColor=none;top=0;left=0;bottom=1;right=0;points=[[0,0.5],[1,0.5]];portConstraint=eastwest;" parent="Rv9vlVJMcPTRxCtkCa90-496" vertex="1">
                    <mxGeometry y="30" width="160" height="70" as="geometry"/>
                </mxCell>
                <mxCell id="Rv9vlVJMcPTRxCtkCa90-498" value="Button" style="shape=partialRectangle;connectable=0;fillColor=none;top=0;left=0;bottom=0;right=0;align=left;spacingLeft=6;fontStyle=0;overflow=hidden;whiteSpace=wrap;verticalAlign=top;" parent="Rv9vlVJMcPTRxCtkCa90-497" vertex="1">
                    <mxGeometry width="160" height="70" as="geometry"/>
                </mxCell>
                <mxCell id="Rv9vlVJMcPTRxCtkCa90-513" value="" style="group" parent="1" connectable="0" vertex="1">
                    <mxGeometry x="1195" y="470" width="230" height="170" as="geometry"/>
                </mxCell>
                <mxCell id="Rv9vlVJMcPTRxCtkCa90-461" value="" style="whiteSpace=wrap;html=1;fontSize=15;" parent="Rv9vlVJMcPTRxCtkCa90-513" vertex="1">
                    <mxGeometry width="230" height="170" as="geometry"/>
                </mxCell>
                <mxCell id="Rv9vlVJMcPTRxCtkCa90-462" value="Customer " style="shape=table;startSize=30;container=1;collapsible=1;childLayout=tableLayout;fixedRows=1;rowLines=0;fontStyle=1;align=center;resizeLast=1;fontSize=14;" parent="Rv9vlVJMcPTRxCtkCa90-513" collapsed="1" vertex="1">
                    <mxGeometry x="10" y="40" width="100" height="30" as="geometry">
                        <mxRectangle x="970" y="150" width="160" height="100" as="alternateBounds"/>
                    </mxGeometry>
                </mxCell>
                <mxCell id="Rv9vlVJMcPTRxCtkCa90-463" value="" style="shape=partialRectangle;collapsible=0;dropTarget=0;pointerEvents=0;fillColor=none;top=0;left=0;bottom=1;right=0;points=[[0,0.5],[1,0.5]];portConstraint=eastwest;" parent="Rv9vlVJMcPTRxCtkCa90-462" vertex="1">
                    <mxGeometry y="30" width="160" height="70" as="geometry"/>
                </mxCell>
                <mxCell id="Rv9vlVJMcPTRxCtkCa90-464" value="Input" style="shape=partialRectangle;connectable=0;fillColor=none;top=0;left=0;bottom=0;right=0;align=left;spacingLeft=6;fontStyle=0;overflow=hidden;whiteSpace=wrap;verticalAlign=top;" parent="Rv9vlVJMcPTRxCtkCa90-463" vertex="1">
                    <mxGeometry width="160" height="70" as="geometry"/>
                </mxCell>
                <mxCell id="Rv9vlVJMcPTRxCtkCa90-465" value="Payload" style="shape=table;startSize=30;container=1;collapsible=1;childLayout=tableLayout;fixedRows=1;rowLines=0;fontStyle=1;align=center;resizeLast=1;fontSize=15;" parent="Rv9vlVJMcPTRxCtkCa90-513" collapsed="1" vertex="1">
                    <mxGeometry x="10" y="80" width="100" height="30" as="geometry">
                        <mxRectangle x="970" y="150" width="160" height="100" as="alternateBounds"/>
                    </mxGeometry>
                </mxCell>
                <mxCell id="Rv9vlVJMcPTRxCtkCa90-466" value="" style="shape=partialRectangle;collapsible=0;dropTarget=0;pointerEvents=0;fillColor=none;top=0;left=0;bottom=1;right=0;points=[[0,0.5],[1,0.5]];portConstraint=eastwest;" parent="Rv9vlVJMcPTRxCtkCa90-465" vertex="1">
                    <mxGeometry y="30" width="160" height="70" as="geometry"/>
                </mxCell>
                <mxCell id="Rv9vlVJMcPTRxCtkCa90-467" value="Input" style="shape=partialRectangle;connectable=0;fillColor=none;top=0;left=0;bottom=0;right=0;align=left;spacingLeft=6;fontStyle=0;overflow=hidden;whiteSpace=wrap;verticalAlign=top;" parent="Rv9vlVJMcPTRxCtkCa90-466" vertex="1">
                    <mxGeometry width="160" height="70" as="geometry"/>
                </mxCell>
                <mxCell id="Rv9vlVJMcPTRxCtkCa90-468" value="New Launch" style="text;html=1;strokeColor=none;fillColor=none;align=center;verticalAlign=middle;whiteSpace=wrap;rounded=0;fontSize=14;fontStyle=1" parent="Rv9vlVJMcPTRxCtkCa90-513" vertex="1">
                    <mxGeometry x="17.5" y="10" width="195" height="20" as="geometry"/>
                </mxCell>
                <mxCell id="Rv9vlVJMcPTRxCtkCa90-469" value="Vehicle" style="shape=table;startSize=30;container=1;collapsible=1;childLayout=tableLayout;fixedRows=1;rowLines=0;fontStyle=1;align=center;resizeLast=1;fontSize=15;" parent="Rv9vlVJMcPTRxCtkCa90-513" collapsed="1" vertex="1">
                    <mxGeometry x="10" y="120" width="100" height="30" as="geometry">
                        <mxRectangle x="970" y="150" width="160" height="100" as="alternateBounds"/>
                    </mxGeometry>
                </mxCell>
                <mxCell id="Rv9vlVJMcPTRxCtkCa90-470" value="" style="shape=partialRectangle;collapsible=0;dropTarget=0;pointerEvents=0;fillColor=none;top=0;left=0;bottom=1;right=0;points=[[0,0.5],[1,0.5]];portConstraint=eastwest;" parent="Rv9vlVJMcPTRxCtkCa90-469" vertex="1">
                    <mxGeometry y="30" width="100" height="70" as="geometry"/>
                </mxCell>
                <mxCell id="Rv9vlVJMcPTRxCtkCa90-471" value="Input" style="shape=partialRectangle;connectable=0;fillColor=none;top=0;left=0;bottom=0;right=0;align=left;spacingLeft=6;fontStyle=0;overflow=hidden;whiteSpace=wrap;verticalAlign=top;" parent="Rv9vlVJMcPTRxCtkCa90-470" vertex="1">
                    <mxGeometry width="100" height="70" as="geometry"/>
                </mxCell>
                <mxCell id="Rv9vlVJMcPTRxCtkCa90-472" value="Date" style="shape=table;startSize=30;container=1;collapsible=1;childLayout=tableLayout;fixedRows=1;rowLines=0;fontStyle=1;align=center;resizeLast=1;fontSize=15;" parent="Rv9vlVJMcPTRxCtkCa90-513" vertex="1">
                    <mxGeometry x="120" y="40" width="90" height="90" as="geometry">
                        <mxRectangle x="800" y="320" width="100" height="30" as="alternateBounds"/>
                    </mxGeometry>
                </mxCell>
                <mxCell id="Rv9vlVJMcPTRxCtkCa90-473" value="" style="shape=partialRectangle;collapsible=0;dropTarget=0;pointerEvents=0;fillColor=none;top=0;left=0;bottom=1;right=0;points=[[0,0.5],[1,0.5]];portConstraint=eastwest;" parent="Rv9vlVJMcPTRxCtkCa90-472" vertex="1">
                    <mxGeometry y="30" width="90" height="30" as="geometry"/>
                </mxCell>
                <mxCell id="Rv9vlVJMcPTRxCtkCa90-474" value="Calendar" style="shape=partialRectangle;connectable=0;fillColor=none;top=0;left=0;bottom=0;right=0;align=left;spacingLeft=6;fontStyle=0;overflow=hidden;whiteSpace=wrap;verticalAlign=top;" parent="Rv9vlVJMcPTRxCtkCa90-473" vertex="1">
                    <mxGeometry width="90" height="30" as="geometry"/>
                </mxCell>
                <mxCell id="226" style="shape=partialRectangle;collapsible=0;dropTarget=0;pointerEvents=0;fillColor=none;top=0;left=0;bottom=1;right=0;points=[[0,0.5],[1,0.5]];portConstraint=eastwest;" parent="Rv9vlVJMcPTRxCtkCa90-472" vertex="1">
                    <mxGeometry y="60" width="90" height="30" as="geometry"/>
                </mxCell>
                <mxCell id="227" value="Time" style="shape=partialRectangle;connectable=0;fillColor=none;top=0;left=0;bottom=0;right=0;align=left;spacingLeft=6;fontStyle=0;overflow=hidden;whiteSpace=wrap;verticalAlign=top;" parent="226" vertex="1">
                    <mxGeometry width="90" height="30" as="geometry"/>
                </mxCell>
                <mxCell id="Rv9vlVJMcPTRxCtkCa90-514" value="Launch Scheduler 9000" style="text;html=1;strokeColor=none;fillColor=none;align=center;verticalAlign=middle;whiteSpace=wrap;rounded=0;dashed=1;fontSize=35;fontStyle=1" parent="1" vertex="1">
                    <mxGeometry x="745" y="150" width="440" height="20" as="geometry"/>
                </mxCell>
                <mxCell id="Rv9vlVJMcPTRxCtkCa90-515" value="Delete" style="shape=table;startSize=30;container=1;collapsible=1;childLayout=tableLayout;fixedRows=1;rowLines=0;fontStyle=1;align=center;resizeLast=1;fontSize=15;" parent="1" collapsed="1" vertex="1">
                    <mxGeometry x="1295" y="390" width="90" height="30" as="geometry">
                        <mxRectangle x="970" y="150" width="160" height="100" as="alternateBounds"/>
                    </mxGeometry>
                </mxCell>
                <mxCell id="Rv9vlVJMcPTRxCtkCa90-516" value="" style="shape=partialRectangle;collapsible=0;dropTarget=0;pointerEvents=0;fillColor=none;top=0;left=0;bottom=1;right=0;points=[[0,0.5],[1,0.5]];portConstraint=eastwest;" parent="Rv9vlVJMcPTRxCtkCa90-515" vertex="1">
                    <mxGeometry y="30" width="160" height="70" as="geometry"/>
                </mxCell>
                <mxCell id="Rv9vlVJMcPTRxCtkCa90-517" value="Input" style="shape=partialRectangle;connectable=0;fillColor=none;top=0;left=0;bottom=0;right=0;align=left;spacingLeft=6;fontStyle=0;overflow=hidden;whiteSpace=wrap;verticalAlign=top;" parent="Rv9vlVJMcPTRxCtkCa90-516" vertex="1">
                    <mxGeometry width="160" height="70" as="geometry"/>
                </mxCell>
                <mxCell id="Rv9vlVJMcPTRxCtkCa90-518" value="Register" style="shape=table;startSize=30;container=1;collapsible=1;childLayout=tableLayout;fixedRows=1;rowLines=0;fontStyle=1;align=center;resizeLast=1;fontSize=15;" parent="Rv9vlVJMcPTRxCtkCa90-515" collapsed="1" vertex="1">
                    <mxGeometry x="-72.5" width="100" height="30" as="geometry">
                        <mxRectangle x="970" y="150" width="160" height="100" as="alternateBounds"/>
                    </mxGeometry>
                </mxCell>
                <mxCell id="Rv9vlVJMcPTRxCtkCa90-519" value="" style="shape=partialRectangle;collapsible=0;dropTarget=0;pointerEvents=0;fillColor=none;top=0;left=0;bottom=1;right=0;points=[[0,0.5],[1,0.5]];portConstraint=eastwest;" parent="Rv9vlVJMcPTRxCtkCa90-518" vertex="1">
                    <mxGeometry y="30" width="160" height="70" as="geometry"/>
                </mxCell>
                <mxCell id="Rv9vlVJMcPTRxCtkCa90-520" value="Input" style="shape=partialRectangle;connectable=0;fillColor=none;top=0;left=0;bottom=0;right=0;align=left;spacingLeft=6;fontStyle=0;overflow=hidden;whiteSpace=wrap;verticalAlign=top;" parent="Rv9vlVJMcPTRxCtkCa90-519" vertex="1">
                    <mxGeometry width="160" height="70" as="geometry"/>
                </mxCell>
                <mxCell id="236" value="" style="whiteSpace=wrap;html=1;fontSize=15;" vertex="1" parent="1">
                    <mxGeometry x="857.5" y="720" width="230" height="40" as="geometry"/>
                </mxCell>
                <mxCell id="237" value="Alert Dialog" style="text;html=1;strokeColor=none;fillColor=none;align=center;verticalAlign=middle;whiteSpace=wrap;rounded=0;fontSize=14;fontStyle=1" vertex="1" parent="1">
                    <mxGeometry x="875" y="730" width="195" height="20" as="geometry"/>
                </mxCell>
                <mxCell id="238" value="" style="whiteSpace=wrap;html=1;fontSize=15;" vertex="1" parent="1">
                    <mxGeometry x="857.5" y="650" width="230" height="40" as="geometry"/>
                </mxCell>
                <mxCell id="239" value="Date/Time Picker" style="text;html=1;strokeColor=none;fillColor=none;align=center;verticalAlign=middle;whiteSpace=wrap;rounded=0;fontSize=14;fontStyle=1" vertex="1" parent="1">
                    <mxGeometry x="875" y="660" width="195" height="20" as="geometry"/>
                </mxCell>
                <mxCell id="240" value="" style="whiteSpace=wrap;html=1;fontSize=15;" vertex="1" parent="1">
                    <mxGeometry x="525" y="620" width="230" height="160" as="geometry"/>
                </mxCell>
                <mxCell id="241" value="Name" style="shape=table;startSize=30;container=1;collapsible=1;childLayout=tableLayout;fixedRows=1;rowLines=0;fontStyle=1;align=center;resizeLast=1;fontSize=14;" collapsed="1" vertex="1" parent="1">
                    <mxGeometry x="535" y="660" width="100" height="30" as="geometry">
                        <mxRectangle x="970" y="150" width="160" height="100" as="alternateBounds"/>
                    </mxGeometry>
                </mxCell>
                <mxCell id="242" value="" style="shape=partialRectangle;collapsible=0;dropTarget=0;pointerEvents=0;fillColor=none;top=0;left=0;bottom=1;right=0;points=[[0,0.5],[1,0.5]];portConstraint=eastwest;" vertex="1" parent="241">
                    <mxGeometry y="30" width="160" height="70" as="geometry"/>
                </mxCell>
                <mxCell id="243" value="Input" style="shape=partialRectangle;connectable=0;fillColor=none;top=0;left=0;bottom=0;right=0;align=left;spacingLeft=6;fontStyle=0;overflow=hidden;whiteSpace=wrap;verticalAlign=top;" vertex="1" parent="242">
                    <mxGeometry width="160" height="70" as="geometry"/>
                </mxCell>
                <mxCell id="244" value="New User" style="text;html=1;strokeColor=none;fillColor=none;align=center;verticalAlign=middle;whiteSpace=wrap;rounded=0;fontSize=14;fontStyle=1" vertex="1" parent="1">
                    <mxGeometry x="537.5" y="630" width="195" height="20" as="geometry"/>
                </mxCell>
                <mxCell id="245" value="Submit" style="shape=table;startSize=30;container=1;collapsible=1;childLayout=tableLayout;fixedRows=1;rowLines=0;fontStyle=1;align=center;resizeLast=1;fontSize=15;" collapsed="1" vertex="1" parent="1">
                    <mxGeometry x="535" y="700" width="100" height="30" as="geometry">
                        <mxRectangle x="1082.5" y="380" width="160" height="100" as="alternateBounds"/>
                    </mxGeometry>
                </mxCell>
                <mxCell id="246" value="" style="shape=partialRectangle;collapsible=0;dropTarget=0;pointerEvents=0;fillColor=none;top=0;left=0;bottom=1;right=0;points=[[0,0.5],[1,0.5]];portConstraint=eastwest;" vertex="1" parent="245">
                    <mxGeometry y="30" width="160" height="70" as="geometry"/>
                </mxCell>
                <mxCell id="247" value="Button" style="shape=partialRectangle;connectable=0;fillColor=none;top=0;left=0;bottom=0;right=0;align=left;spacingLeft=6;fontStyle=0;overflow=hidden;whiteSpace=wrap;verticalAlign=top;" vertex="1" parent="246">
                    <mxGeometry width="160" height="70" as="geometry"/>
                </mxCell>
                <mxCell id="248" value="Password" style="shape=table;startSize=30;container=1;collapsible=1;childLayout=tableLayout;fixedRows=1;rowLines=0;fontStyle=1;align=center;resizeLast=1;fontSize=14;" collapsed="1" vertex="1" parent="1">
                    <mxGeometry x="644.5" y="660" width="100" height="30" as="geometry">
                        <mxRectangle x="970" y="150" width="160" height="100" as="alternateBounds"/>
                    </mxGeometry>
                </mxCell>
                <mxCell id="249" value="" style="shape=partialRectangle;collapsible=0;dropTarget=0;pointerEvents=0;fillColor=none;top=0;left=0;bottom=1;right=0;points=[[0,0.5],[1,0.5]];portConstraint=eastwest;" vertex="1" parent="248">
                    <mxGeometry y="30" width="160" height="70" as="geometry"/>
                </mxCell>
                <mxCell id="250" value="Input" style="shape=partialRectangle;connectable=0;fillColor=none;top=0;left=0;bottom=0;right=0;align=left;spacingLeft=6;fontStyle=0;overflow=hidden;whiteSpace=wrap;verticalAlign=top;" vertex="1" parent="249">
                    <mxGeometry width="160" height="70" as="geometry"/>
                </mxCell>
                <mxCell id="251" value="Email" style="shape=table;startSize=30;container=1;collapsible=1;childLayout=tableLayout;fixedRows=1;rowLines=0;fontStyle=1;align=center;resizeLast=1;fontSize=14;" collapsed="1" vertex="1" parent="1">
                    <mxGeometry x="644.5" y="700" width="100" height="30" as="geometry">
                        <mxRectangle x="970" y="150" width="160" height="100" as="alternateBounds"/>
                    </mxGeometry>
                </mxCell>
                <mxCell id="252" value="" style="shape=partialRectangle;collapsible=0;dropTarget=0;pointerEvents=0;fillColor=none;top=0;left=0;bottom=1;right=0;points=[[0,0.5],[1,0.5]];portConstraint=eastwest;" vertex="1" parent="251">
                    <mxGeometry y="30" width="160" height="70" as="geometry"/>
                </mxCell>
                <mxCell id="253" value="Input" style="shape=partialRectangle;connectable=0;fillColor=none;top=0;left=0;bottom=0;right=0;align=left;spacingLeft=6;fontStyle=0;overflow=hidden;whiteSpace=wrap;verticalAlign=top;" vertex="1" parent="252">
                    <mxGeometry width="160" height="70" as="geometry"/>
                </mxCell>
                <mxCell id="254" value="Permission" style="shape=table;startSize=30;container=1;collapsible=1;childLayout=tableLayout;fixedRows=1;rowLines=0;fontStyle=1;align=center;resizeLast=1;fontSize=15;" collapsed="1" vertex="1" parent="1">
                    <mxGeometry x="535" y="740" width="122.5" height="30" as="geometry">
                        <mxRectangle x="1082.5" y="380" width="160" height="100" as="alternateBounds"/>
                    </mxGeometry>
                </mxCell>
                <mxCell id="255" value="" style="shape=partialRectangle;collapsible=0;dropTarget=0;pointerEvents=0;fillColor=none;top=0;left=0;bottom=1;right=0;points=[[0,0.5],[1,0.5]];portConstraint=eastwest;" vertex="1" parent="254">
                    <mxGeometry y="30" width="160" height="70" as="geometry"/>
                </mxCell>
                <mxCell id="256" value="Button" style="shape=partialRectangle;connectable=0;fillColor=none;top=0;left=0;bottom=0;right=0;align=left;spacingLeft=6;fontStyle=0;overflow=hidden;whiteSpace=wrap;verticalAlign=top;" vertex="1" parent="255">
                    <mxGeometry width="160" height="70" as="geometry"/>
                </mxCell>
            </root>
        </mxGraphModel>
    </diagram>
</mxfile>